<svg width="41" height="41" viewBox="0 0 41 41" fill="none" xmlns="http://www.w3.org/2000/svg">
<g clip-path="url(#clip0_4_70)">
<path d="M16.05 0.48C16.32 0.42 16.6 0.37 16.88 0.32L19.64 12.17L20.03 0.01C20.17 0.01 20.31 0 20.45 0C20.59 0 20.73 0 20.87 0.01L21.26 12.17L24.02 0.32C24.3 0.37 24.58 0.42 24.85 0.48L22.86 12.49L27.88 1.4C28.14 1.5 28.4 1.61 28.66 1.72L24.37 13.11L31.45 3.22C31.69 3.37 31.92 3.53 32.15 3.69L25.72 14.02L34.6 5.7C34.8 5.9 35 6.09 35.2 6.3L26.88 15.18L37.21 8.75C37.37 8.98 37.53 9.22 37.68 9.45L27.79 16.53L39.18 12.24C39.29 12.5 39.4 12.76 39.5 13.02L28.41 18.04L40.42 16.05C40.48 16.32 40.53 16.6 40.58 16.88L28.73 19.64L40.89 20.03C40.89 20.17 40.9 20.31 40.9 20.45C40.9 20.59 40.9 20.73 40.89 20.87L28.73 21.26L40.58 24.02C40.53 24.3 40.48 24.58 40.42 24.85L28.41 22.86L39.5 27.88C39.4 28.14 39.29 28.4 39.18 28.66L27.79 24.37L37.68 31.45C37.53 31.69 37.37 31.92 37.21 32.15L26.88 25.72L35.2 34.6C35 34.8 34.81 35 34.6 35.2L25.72 26.88L32.15 37.21C31.92 37.37 31.68 37.53 31.45 37.68L24.37 27.79L28.66 39.18C28.4 39.29 28.14 39.4 27.88 39.5L22.86 28.41L24.85 40.42C24.58 40.48 24.3 40.53 24.02 40.58L21.26 28.73L20.87 40.89C20.73 40.89 20.59 40.9 20.45 40.9C20.31 40.9 20.17 40.9 20.03 40.89L19.64 28.73L16.88 40.58C16.6 40.53 16.32 40.48 16.05 40.42L18.04 28.41L13.02 39.5C12.76 39.4 12.5 39.29 12.24 39.18L16.53 27.79L9.45 37.68C9.21 37.53 8.98 37.37 8.75 37.21L15.18 26.88L6.3 35.2C6.1 35 5.9 34.81 5.7 34.6L14.02 25.72L3.69 32.15C3.53 31.92 3.37 31.68 3.22 31.45L13.11 24.37L1.72 28.66C1.61 28.4 1.5 28.14 1.4 27.88L12.49 22.86L0.48 24.85C0.42 24.58 0.37 24.3 0.32 24.02L12.17 21.26L0.01 20.87C0.01 20.73 0 20.59 0 20.45C0 20.31 0 20.17 0.01 20.03L12.17 19.64L0.32 16.88C0.37 16.6 0.42 16.32 0.48 16.05L12.49 18.04L1.4 13.02C1.5 12.76 1.61 12.5 1.72 12.24L13.11 16.53L3.22 9.44C3.37 9.2 3.53 8.97 3.69 8.74L14.02 15.17L5.7 6.3C5.9 6.1 6.09 5.9 6.3 5.7L15.18 14.02L8.74 3.69C8.97 3.53 9.21 3.37 9.44 3.22L16.52 13.11L12.23 1.72C12.49 1.61 12.75 1.5 13.01 1.4L18.03 12.49L16.05 0.48Z" fill="url(#paint0_linear_4_70)"/>
</g>
<defs>
<linearGradient id="paint0_linear_4_70" x1="0" y1="20.45" x2="40.9" y2="20.45" gradientUnits="userSpaceOnUse">
<stop stop-color="#E93323"/>
<stop offset="1" stop-color="#306DBD"/>
</linearGradient>
<clipPath id="clip0_4_70">
<rect width="40.9" height="40.9" fill="white"/>
</clipPath>
</defs>
</svg>
