<svg width="41" height="41" viewBox="0 0 41 41" fill="none" xmlns="http://www.w3.org/2000/svg">
<g clip-path="url(#clip0_4_89)">
<path d="M0.3 0H0V0.296871L35.69 35.6146L0 4.41348V4.97753L35.6 36.1094L0 8.79727V9.33163L35.5 36.5646L0 12.8842V13.3988L35.39 36.9901L0 16.7039V17.1888L35.25 37.3958L0 20.2763V20.7513L35.08 37.7916L0 23.6309V24.0861L34.9 38.1677L0 26.7777V27.223L34.68 38.5437L0 29.7563V30.1917L34.42 38.9098L0 32.5568V32.9823L34.14 39.2859L0 35.199V35.6245L33.82 39.6718L0 37.7026V38.1281L33.47 40.0775H0V40.503H40.93V40.2062L0.3 0Z" fill="url(#paint0_linear_4_89)"/>
<path d="M40.63 40.503H40.93V40.2062L5.24 4.88847L40.93 36.0797V35.5255L5.32 4.39368L40.93 31.7058V31.1714L5.42 3.93848L40.93 27.6189V27.1043L5.54 3.51297L40.93 23.7991V23.3142L5.68 3.10725L40.93 20.2268V19.7518L5.84 2.71142L40.93 16.8721V16.4169L6.03 2.33538L40.93 13.7154V13.2701L6.25 1.95935L40.93 10.7467V10.3113L6.51 1.59321L40.93 7.94624V7.52072L6.79 1.20727L40.93 5.30409V4.87857L7.1 0.821342L40.93 2.80048V2.37496L7.45 0.425515H40.93V0H0V0.296871L40.63 40.503Z" fill="url(#paint1_linear_4_89)"/>
</g>
<defs>
<linearGradient id="paint0_linear_4_89" x1="0" y1="20.2466" x2="40.93" y2="20.2466" gradientUnits="userSpaceOnUse">
<stop stop-color="#E93323"/>
<stop offset="1" stop-color="#306DBD"/>
</linearGradient>
<linearGradient id="paint1_linear_4_89" x1="0" y1="20.2466" x2="40.93" y2="20.2466" gradientUnits="userSpaceOnUse">
<stop stop-color="#E93323"/>
<stop offset="1" stop-color="#306DBD"/>
</linearGradient>
<clipPath id="clip0_4_89">
<rect width="40.93" height="40.503" fill="white"/>
</clipPath>
</defs>
</svg>
