<svg width="41" height="41" viewBox="0 0 41 41" fill="none" xmlns="http://www.w3.org/2000/svg">
<g clip-path="url(#clip0_4_99)">
<path d="M10.22 0.394775C4.58 0.394775 0 4.927 0 10.5082C0 16.0992 4.58 20.6216 10.22 20.6216C15.87 20.6216 20.44 16.0893 20.44 10.5082C20.45 4.927 15.87 0.394775 10.22 0.394775Z" fill="url(#paint0_linear_4_99)"/>
<path d="M30.67 20.6315C25.02 20.6315 20.45 25.1637 20.45 30.7449C20.45 36.3359 25.03 40.8583 30.67 40.8583C36.32 40.8583 40.8899 36.326 40.8899 30.7449C40.8899 25.1538 36.3099 20.6315 30.67 20.6315Z" fill="url(#paint1_linear_4_99)"/>
<path d="M40.9 10.5082C40.9 4.927 36.32 0.394775 30.67 0.394775C25.02 0.394775 20.45 4.927 20.45 10.5082C20.45 16.0992 25.03 20.6216 30.67 20.6216C36.32 20.6216 40.8899 16.0893 40.8899 10.5082H40.9Z" fill="url(#paint2_linear_4_99)"/>
<path d="M20.45 30.7449C20.45 25.1538 15.87 20.6315 10.23 20.6315C4.58 20.6315 0 25.1637 0 30.7449C0 36.326 4.58 40.8583 10.22 40.8583C15.87 40.8583 20.44 36.326 20.44 30.7449H20.45Z" fill="url(#paint3_linear_4_99)"/>
</g>
<defs>
<linearGradient id="paint0_linear_4_99" x1="0" y1="10.5082" x2="20.45" y2="10.5082" gradientUnits="userSpaceOnUse">
<stop stop-color="#E93323"/>
<stop offset="1" stop-color="#306DBD"/>
</linearGradient>
<linearGradient id="paint1_linear_4_99" x1="20.45" y1="30.7449" x2="40.8999" y2="30.7449" gradientUnits="userSpaceOnUse">
<stop stop-color="#E93323"/>
<stop offset="1" stop-color="#306DBD"/>
</linearGradient>
<linearGradient id="paint2_linear_4_99" x1="20.45" y1="10.5082" x2="40.9" y2="10.5082" gradientUnits="userSpaceOnUse">
<stop stop-color="#E93323"/>
<stop offset="1" stop-color="#306DBD"/>
</linearGradient>
<linearGradient id="paint3_linear_4_99" x1="0" y1="30.7449" x2="20.45" y2="30.7449" gradientUnits="userSpaceOnUse">
<stop stop-color="#E93323"/>
<stop offset="1" stop-color="#306DBD"/>
</linearGradient>
<clipPath id="clip0_4_99">
<rect width="40.9" height="40.4734" fill="white" transform="translate(0 0.394775)"/>
</clipPath>
</defs>
</svg>
