<svg width="41" height="41" viewBox="0 0 41 41" fill="none" xmlns="http://www.w3.org/2000/svg">
<g clip-path="url(#clip0_4_116)">
<path d="M3.41 37.49H37.49L40.9 40.9H0L3.41 37.49Z" fill="url(#paint0_linear_4_116)"/>
<path d="M40.9 36.21H0L5.54 32.8H35.36L40.9 36.21Z" fill="url(#paint1_linear_4_116)"/>
<path d="M40.9 31.53H0L7.67 28.12H33.23L40.9 31.53Z" fill="url(#paint2_linear_4_116)"/>
<path d="M40.9 26.8401H0L9.8 23.4301H31.1L40.9 26.8401Z" fill="url(#paint3_linear_4_116)"/>
<path d="M40.9 22.15H0L11.93 18.75H28.97L40.9 22.15Z" fill="url(#paint4_linear_4_116)"/>
<path d="M40.9 17.4701H0L14.06 14.0601H26.84L40.9 17.4701Z" fill="url(#paint5_linear_4_116)"/>
<path d="M40.9 12.78H0L16.19 9.37H24.71L40.9 12.78Z" fill="url(#paint6_linear_4_116)"/>
<path d="M40.9 8.08994H0L18.32 4.68994H22.58L40.9 8.08994Z" fill="url(#paint7_linear_4_116)"/>
<path d="M40.9 3.41H0L20.45 0L40.9 3.41Z" fill="url(#paint8_linear_4_116)"/>
</g>
<defs>
<linearGradient id="paint0_linear_4_116" x1="20.45" y1="40.9" x2="20.45" y2="37.49" gradientUnits="userSpaceOnUse">
<stop stop-color="#E93323"/>
<stop offset="1" stop-color="#306DBD"/>
</linearGradient>
<linearGradient id="paint1_linear_4_116" x1="20.45" y1="36.21" x2="20.45" y2="32.8" gradientUnits="userSpaceOnUse">
<stop stop-color="#E93323"/>
<stop offset="1" stop-color="#306DBD"/>
</linearGradient>
<linearGradient id="paint2_linear_4_116" x1="20.45" y1="31.53" x2="20.45" y2="28.12" gradientUnits="userSpaceOnUse">
<stop stop-color="#E93323"/>
<stop offset="1" stop-color="#306DBD"/>
</linearGradient>
<linearGradient id="paint3_linear_4_116" x1="20.45" y1="26.8401" x2="20.45" y2="23.4301" gradientUnits="userSpaceOnUse">
<stop stop-color="#E93323"/>
<stop offset="1" stop-color="#306DBD"/>
</linearGradient>
<linearGradient id="paint4_linear_4_116" x1="20.45" y1="22.15" x2="20.45" y2="18.75" gradientUnits="userSpaceOnUse">
<stop stop-color="#E93323"/>
<stop offset="1" stop-color="#306DBD"/>
</linearGradient>
<linearGradient id="paint5_linear_4_116" x1="20.45" y1="17.4701" x2="20.45" y2="14.0601" gradientUnits="userSpaceOnUse">
<stop stop-color="#E93323"/>
<stop offset="1" stop-color="#306DBD"/>
</linearGradient>
<linearGradient id="paint6_linear_4_116" x1="20.45" y1="12.78" x2="20.45" y2="9.37" gradientUnits="userSpaceOnUse">
<stop stop-color="#E93323"/>
<stop offset="1" stop-color="#306DBD"/>
</linearGradient>
<linearGradient id="paint7_linear_4_116" x1="20.45" y1="8.08994" x2="20.45" y2="4.68994" gradientUnits="userSpaceOnUse">
<stop stop-color="#E93323"/>
<stop offset="1" stop-color="#306DBD"/>
</linearGradient>
<linearGradient id="paint8_linear_4_116" x1="20.45" y1="3.41" x2="20.45" y2="0" gradientUnits="userSpaceOnUse">
<stop stop-color="#E93323"/>
<stop offset="1" stop-color="#306DBD"/>
</linearGradient>
<clipPath id="clip0_4_116">
<rect width="40.9" height="40.9" fill="white"/>
</clipPath>
</defs>
</svg>
