<svg width="1900" height="1900" viewBox="0 0 1900 1900" fill="none" xmlns="http://www.w3.org/2000/svg">
<path d="M654.61 45.82C667.04 41.7699 679.61 38.0199 692.27 34.4799L874.29 570.47L836.7 5.81995C843.22 5.03995 849.66 4.02995 856.23 3.37995C862.8 2.72995 869.31 2.44995 875.86 1.93995L949.79 562.98L1023.1 1.69995C1036.21 2.68995 1049.28 3.89995 1062.26 5.42995L1025.3 570.38L1206.74 34.08C1219.39 37.63 1231.95 41.3799 1244.4 45.4399L1097.92 592.37L1380.44 101.88C1392.14 107.83 1403.71 114.01 1415.14 120.41L1164.85 628.09L1537.55 202.23C1547.87 210.34 1558.01 218.65 1567.98 227.17L1223.52 676.19L1672.23 331.16C1680.77 341.1 1689.09 351.23 1697.21 361.55L1271.69 734.81L1779.25 483.87C1785.67 495.28 1791.82 506.86 1797.78 518.56L1307.5 801.7L1854.21 654.61C1858.26 667.04 1862 679.61 1865.55 692.27L1329.56 874.29L1894.21 836.7C1894.99 843.22 1895.99 849.66 1896.64 856.23C1897.29 862.8 1897.57 869.31 1898.08 875.86L1337.03 949.79L1898.32 1023.1C1897.32 1036.21 1896.12 1049.27 1894.58 1062.26L1329.63 1025.3L1865.94 1206.74C1862.39 1219.39 1858.64 1231.95 1854.58 1244.4L1307.65 1097.92L1798.14 1380.44C1792.19 1392.14 1786.01 1403.71 1779.61 1415.14L1271.93 1164.85L1697.79 1537.56C1689.68 1547.88 1681.37 1558.02 1672.85 1567.99L1223.83 1223.53L1568.86 1672.24C1558.91 1680.78 1548.78 1689.11 1538.47 1697.22L1165.21 1271.7L1416.15 1779.25C1404.74 1785.67 1393.16 1791.82 1381.46 1797.78L1098.32 1307.5L1245.41 1854.21C1232.98 1858.26 1220.41 1862 1207.75 1865.56L1025.73 1329.57L1063.32 1894.22C1056.8 1895 1050.36 1896 1043.79 1896.65C1037.22 1897.3 1030.71 1897.58 1024.16 1898.09L950.23 1337.04L876.92 1898.33C863.8 1897.33 850.75 1896.13 837.76 1894.59L874.72 1329.64L693.28 1865.95C680.63 1862.4 668.07 1858.65 655.63 1854.59L802.11 1307.66L519.59 1798.15C507.89 1792.2 496.32 1786.02 484.89 1779.62L735.18 1271.94L362.47 1697.8C352.15 1689.69 342.01 1681.38 332.04 1672.85L676.5 1223.83L227.79 1568.86C219.25 1558.92 210.93 1548.79 202.81 1538.47L628.33 1165.21L120.78 1416.15C114.36 1404.74 108.21 1393.16 102.25 1381.46L592.53 1098.32L45.8202 1245.41C41.7702 1232.98 38.0302 1220.41 34.4702 1207.75L570.46 1025.73L5.8202 1063.32C5.0402 1056.8 4.0402 1050.36 3.3902 1043.79C2.7402 1037.22 2.4602 1030.71 1.9502 1024.16L563 950.23L1.7002 876.92C2.7002 863.8 3.9002 850.75 5.4402 837.76L570.39 874.72L34.0702 693.28C37.6202 680.63 41.3802 668.07 45.4302 655.63L592.36 802.11L101.87 519.59C107.82 507.89 114 496.32 120.4 484.89L628.09 735.18L202.22 362.47C210.33 352.15 218.64 342.01 227.17 332.04L676.19 676.5L331.15 227.79C341.1 219.26 351.22 210.93 361.54 202.81L734.8 628.33L483.86 120.78C495.27 114.36 506.85 108.21 518.55 102.25L801.69 592.53L654.61 45.82Z" stroke="url(#paint0_linear_2007_19)" stroke-width="1.5" stroke-miterlimit="10"/>
<defs>
<linearGradient id="paint0_linear_2007_19" x1="1043.94" y1="1897.33" x2="856.156" y2="2.59757" gradientUnits="userSpaceOnUse">
<stop stop-color="white"/>
<stop offset="1" stop-color="#E6E6E6"/>
</linearGradient>
</defs>
</svg>
