<svg width="597" height="597" viewBox="0 0 597 597" fill="none" xmlns="http://www.w3.org/2000/svg">
<path d="M234.26 8.46001C238.24 7.59001 242.26 6.81001 246.3 6.10001L286.31 178.03L292 1.64001C294.05 1.60001 296.08 1.48001 298.14 1.48001C300.2 1.48001 302.23 1.59001 304.28 1.64001L309.97 178.02L349.97 6.09001C354.01 6.80001 358.03 7.58001 362.01 8.45001L333.17 182.63L405.97 21.79C409.79 23.28 413.57 24.83 417.31 26.47L355.04 191.7L457.79 48.17C461.24 50.38 464.64 52.65 467.99 54.99L374.71 204.85L503.46 84.15C506.41 86.98 509.3 89.88 512.14 92.83L391.44 221.59L541.3 128.31C543.64 131.66 545.92 135.06 548.12 138.51L404.59 241.26L569.82 178.99C571.46 182.73 573.01 186.51 574.5 190.33L413.64 263.12L587.82 234.28C588.69 238.26 589.47 242.28 590.18 246.32L418.25 286.33L594.63 292.02C594.67 294.07 594.79 296.1 594.79 298.16C594.79 300.22 594.68 302.25 594.63 304.3L418.25 309.99L590.18 350C589.47 354.04 588.69 358.05 587.82 362.04L413.64 333.2L574.5 406C573.01 409.82 571.46 413.6 569.82 417.34L404.59 355.07L548.12 457.82C545.91 461.27 543.64 464.67 541.3 468.02L391.44 374.74L512.14 503.5C509.31 506.45 506.42 509.34 503.46 512.18L374.71 391.48L467.99 541.34C464.64 543.68 461.24 545.96 457.79 548.16L355.04 404.63L417.31 569.86C413.57 571.5 409.79 573.05 405.97 574.54L333.17 413.68L362.01 587.86C358.03 588.73 354.01 589.51 349.97 590.22L309.96 418.29L304.27 594.67C302.22 594.71 300.19 594.83 298.13 594.83C296.07 594.83 294.04 594.72 291.99 594.67L286.3 418.29L246.29 590.22C242.25 589.51 238.24 588.73 234.25 587.86L263.09 413.68L190.3 574.54C186.48 573.05 182.7 571.5 178.96 569.86L241.23 404.63L138.48 548.16C135.03 545.95 131.63 543.68 128.28 541.34L221.56 391.48L92.8 512.18C89.85 509.35 86.96 506.45 84.12 503.5L204.82 374.75L54.96 468.03C52.62 464.68 50.34 461.28 48.14 457.83L191.67 355.08L26.44 417.35C24.8 413.61 23.25 409.83 21.76 406.01L182.62 333.21L8.43998 362.05C7.56998 358.07 6.78998 354.05 6.07998 350.01L178.01 310L1.63998 304.27C1.59998 302.22 1.47998 300.19 1.47998 298.13C1.47998 296.07 1.58998 294.04 1.63998 291.99L178.02 286.3L6.08998 246.3C6.79998 242.26 7.57998 238.25 8.44998 234.26L182.63 263.1L21.78 190.31C23.27 186.49 24.82 182.71 26.46 178.97L191.69 241.24L48.17 138.49C50.38 135.04 52.65 131.64 54.99 128.29L204.85 221.57L84.14 92.81C86.97 89.86 89.87 86.97 92.82 84.13L221.57 204.83L128.29 54.98C131.64 52.64 135.04 50.36 138.49 48.16L241.24 191.69L178.97 26.47C182.71 24.83 186.49 23.28 190.31 21.79L263.1 182.65L234.26 8.46001Z" stroke="url(#paint0_linear_2005_3)" stroke-width="2.97" stroke-miterlimit="10"/>
<defs>
<linearGradient id="paint0_linear_2005_3" x1="-1.95494e-05" y1="298.14" x2="596.27" y2="298.14" gradientUnits="userSpaceOnUse">
<stop stop-color="#E93323"/>
<stop offset="1" stop-color="#306DBD"/>
</linearGradient>
</defs>
</svg>
