<svg width="157" height="46" viewBox="0 0 157 46" fill="none" xmlns="http://www.w3.org/2000/svg">
<g clip-path="url(#clip0_3_55)">
<path d="M150.3 0H137.73V6.29H150.3V0Z" fill="#00A3E6"/>
<path d="M156.6 6.29H150.31V18.86H156.6V6.29Z" fill="#FF0000"/>
<path d="M144.02 12.57H137.73V18.86H144.02V12.57Z" fill="#FF0000"/>
<path d="M156.6 0H150.31V6.29H156.6V0Z" fill="white"/>
<path d="M7.26 39.78L4.7 45.82H0L11.81 19.06H16.43L28.13 45.82H23.31L20.75 39.78H7.26ZM13.99 23.87L8.94 35.76H19.03L13.98 23.87H13.99Z" fill="white"/>
<path d="M45.37 27.35L43.76 30.6C41.96 29.49 39.71 28.8 37.91 28.8C36.11 28.8 34.93 29.37 34.93 30.83C34.93 34.58 45.75 32.55 45.71 39.93C45.71 44.1 42 45.97 37.91 45.97C34.93 45.97 31.76 44.98 29.73 43.14L31.3 40.01C33.06 41.58 35.89 42.53 38.1 42.53C39.97 42.53 41.43 41.88 41.43 40.35C41.43 36.18 30.73 38.52 30.77 31.18C30.77 27.05 34.36 25.29 38.26 25.29C40.82 25.29 43.53 26.05 45.37 27.35Z" fill="white"/>
<path d="M67.66 28.65L65.25 31.48C63.84 30.03 61.89 29.15 59.44 29.19C55.92 29.19 53.4 31.83 53.4 35.69C53.4 39.55 55.92 42.19 59.44 42.19C62 42.19 64.06 41.35 65.44 39.74L67.89 42.19C66.06 44.6 63.11 45.97 59.25 45.97C53.21 45.97 49.01 41.8 49.01 35.69C49.01 29.58 53.21 25.33 59.25 25.33C62.92 25.33 65.79 26.52 67.66 28.66V28.65Z" fill="white"/>
<path d="M90.33 37.33H74.96C75.65 40.46 78.06 42.41 81.27 42.41C83.49 42.41 85.51 41.57 87 40.04L89.33 42.52C87.34 44.7 84.44 45.96 80.92 45.96C74.65 45.96 70.52 41.79 70.52 35.68C70.52 29.57 74.76 25.36 80.8 25.32C87.95 25.32 90.85 29.98 90.32 37.32L90.33 37.33ZM86.51 34.12C86.36 30.83 84.18 28.85 80.85 28.85C77.52 28.85 75.38 30.88 74.89 34.12H86.51Z" fill="white"/>
<path d="M115.14 33.16V45.81H110.74V34.38C110.74 31.32 108.91 29.45 105.85 29.45C102.49 29.49 100.38 31.82 100.08 34.99V45.81H95.6799V25.48H100.08V29.38C101.53 26.55 104.13 25.33 107.57 25.33C112.31 25.33 115.14 28.31 115.14 33.17V33.16Z" fill="white"/>
<path d="M133.3 44.51C131.69 45.47 130.01 46 128.29 46C125.23 46 122.59 44.24 122.59 40.08V29.53H119.72V26.24H122.59V20.66H126.95V26.24H132.95V29.53H126.95V39.28C126.95 41.38 127.75 42.03 129.13 42.03C130.05 42.03 131 41.72 132.19 41.15L133.3 44.51Z" fill="white"/>
</g>
<defs>
<clipPath id="clip0_3_55">
<rect width="156.6" height="46.01" fill="white"/>
</clipPath>
</defs>
</svg>
