<svg width="134" height="40" viewBox="0 0 134 40" fill="none" xmlns="http://www.w3.org/2000/svg">
<g id="Logo Footer" clip-path="url(#clip0_4_678)">
<g id="Group">
<g id="Group_2">
<path id="Vector" d="M128.46 0H117.71V5.37H128.46V0Z" fill="#2B6BBF"/>
<path id="Vector_2" d="M133.83 5.37012H128.46V16.1201H133.83V5.37012Z" fill="#EC3113"/>
</g>
<path id="Vector_3" d="M123.08 10.75H117.71V16.12H123.08V10.75Z" fill="#EC3113"/>
<path id="Vector_4" d="M133.82 0H128.45V5.37H133.82V0Z" fill="#212148"/>
</g>
<g id="Group_3">
<path id="Vector_5" d="M6.21 33.99L4.02 39.15H0L10.09 16.28H14.04L24.04 39.15H19.92L17.73 33.99H6.21ZM11.96 20.4L7.65 30.56H16.27L11.96 20.4Z" fill="#1B2057"/>
<path id="Vector_6" d="M38.7799 23.3701L37.4099 26.1501C35.8699 25.2001 33.9499 24.6101 32.4099 24.6101C30.8699 24.6101 29.8599 25.1001 29.8599 26.3401C29.8599 29.5401 39.1099 27.8101 39.0699 34.1201C39.0699 37.6801 35.8999 39.2801 32.4099 39.2801C29.8599 39.2801 27.1499 38.4301 25.4199 36.8601L26.7599 34.1801C28.2599 35.5201 30.6799 36.3401 32.5699 36.3401C34.1699 36.3401 35.4099 35.7801 35.4099 34.4801C35.4099 30.9201 26.2599 32.9101 26.2999 26.6401C26.2999 23.1101 29.3699 21.6101 32.6999 21.6101C34.8899 21.6101 37.2099 22.2601 38.7799 23.3701Z" fill="#1B2057"/>
<path id="Vector_7" d="M57.8299 24.4901L55.7699 26.9101C54.5599 25.6701 52.8899 24.9201 50.7999 24.9501C47.7899 24.9501 45.6399 27.2001 45.6399 30.5001C45.6399 33.8001 47.7999 36.0501 50.7999 36.0501C52.9899 36.0501 54.7499 35.3301 55.9299 33.9601L58.0199 36.0501C56.4499 38.1101 53.9399 39.2801 50.6399 39.2801C45.4799 39.2801 41.8799 35.7201 41.8799 30.4901C41.8799 25.2601 45.4699 21.6401 50.6399 21.6401C53.7799 21.6401 56.2299 22.6501 57.8299 24.4801V24.4901Z" fill="#1B2057"/>
<path id="Vector_8" d="M77.2 31.9001H64.07C64.66 34.5801 66.72 36.2501 69.46 36.2501C71.36 36.2501 73.09 35.5301 74.36 34.2201L76.35 36.3401C74.65 38.2001 72.17 39.2801 69.16 39.2801C63.8 39.2801 60.27 35.7201 60.27 30.4901C60.27 25.2601 63.9 21.6701 69.06 21.6401C75.17 21.6401 77.65 25.6301 77.19 31.9001H77.2ZM73.93 29.1601C73.8 26.3501 71.94 24.6501 69.09 24.6501C66.24 24.6501 64.42 26.3801 63.99 29.1601H73.92H73.93Z" fill="#1B2057"/>
<path id="Vector_9" d="M98.4 28.3401V39.1501H94.64V29.3801C94.64 26.7701 93.07 25.1701 90.46 25.1701C87.58 25.2001 85.79 27.2001 85.53 29.9101V39.1601H81.77V21.7801H85.53V25.1101C86.77 22.6901 88.99 21.6501 91.93 21.6501C95.98 21.6501 98.4 24.2001 98.4 28.3501V28.3401Z" fill="#1B2057"/>
<path id="Vector_10" d="M113.92 38.0401C112.55 38.8601 111.11 39.3101 109.64 39.3101C107.03 39.3101 104.77 37.8101 104.77 34.2501V25.2301H102.32V22.4201H104.77V17.6501H108.49V22.4201H113.62V25.2301H108.49V33.5601C108.49 35.3601 109.18 35.9101 110.35 35.9101C111.13 35.9101 111.95 35.6501 112.96 35.1601L113.91 38.0401H113.92Z" fill="#1B2057"/>
</g>
</g>
<defs>
<clipPath id="clip0_4_678">
<rect width="133.83" height="39.32" fill="white"/>
</clipPath>
</defs>
</svg>
